<?xml version="1.0" encoding="UTF-8"?>
<svg xmlns="http://www.w3.org/2000/svg" version="1.1" viewBox="0 0 1249 310.7">
  <defs>
    <style>
      .cls-1 {
        fill: #343a40;
      }

      .cls-2 {
        fill: #2ecc71;
      }

      .cls-3 {
        fill: none;
        stroke: #2ecc71;
        stroke-miterlimit: 10;
        stroke-width: 43.6px;
      }
    </style>
  </defs>
  <!-- Generator: Adobe Illustrator 28.6.0, SVG Export Plug-In . SVG Version: 1.2.0 Build 709)  -->
  <g>
    <g id="Layer_1">
      <path class="cls-2" d="M416.3,57.4l-35.6,35.6V21.9l35.6,35.6Z"/>
      <rect class="cls-1" x="268.7" y="80.4" width="40.5" height="61.7"/>
      <path class="cls-3" d="M385.3,56.9c-96.3-.2-132.8-.2-147.2-.2h-35.9c-27.8,0-24.8,0-29.9,0-38.8-.2-7.7-.1-28.6,0-6.4,0-11.4,0-18.1.7-6.2.6-10.7,1.4-13.1,1.8-5.9,1.2-9.7,1.8-14.4,3.9-4.2,1.6-8.1,3.8-11.6,6.6-4.1,3.3-7.6,7.3-10.3,11.8-2.2,3.7-4,7.6-5.3,11.7-1.3,3.7-2.2,7.6-2.6,11.5-.5,4.8-.3,9.6.4,14.3.5,3.6,1.4,7.1,2.8,10.5,1.2,2.7,3.8,8.9,9.8,13.1,4.3,3.1,8.3,3.7,15.4,4.7,3.7.6,6.6.7,21.1.5,9.2-.1,12.3-.2,19.8-.3,8.8,0,13.3,0,16.6.3,6.3.5,12.6,2.1,18.4,4.7,4.3,1.9,8.2,4.4,11.8,7.4,2.6,2.1,5,4.5,7.1,7.1,2.9,3.6,5.2,7.7,6.9,12,1.1,2.7,1.9,5.6,2.5,8.5,1.4,7.6.4,15.4-2.9,22.3-2.4,5.1-5.8,9.6-9.9,13.5-2.6,2.6-5.3,4.9-8.2,7-3.2,2.3-6.5,4.3-10,6-1.4.7-4.4,2.2-8.4,3.8-4,1.7-8.2,3-12.5,4-3.9.9-7.9,1.5-12,1.8-2,.2-3.8.3-7.2.4-5.2.3-8.4.3-9.4.3H52.7"/>
      <path class="cls-2" d="M18,246.3l35.6-35.6v71.2l-35.6-35.6Z"/>
      <path class="cls-2" d="M229.9,165.3l35.6-35.6v71.2l-35.6-35.6Z"/>
      <rect class="cls-2" x="264.6" y="145.3" width="152" height="40.5"/>
      <rect class="cls-1" x="269.2" y="188.6" width="40.5" height="93.1"/>
      <g>
        <path class="cls-1" d="M457.1,234.5c7.9,4.8,24.5,10.4,37.1,10.4s18.6-4.4,18.6-11.5-4.4-10.7-20.4-16.1c-28.9-9.5-39.8-25.3-39.7-41.6,0-26.1,22.1-45.8,56.6-45.8s30.7,3.8,39.2,8.1l-7.5,29.8c-6.3-3.3-18.4-7.9-30.2-7.9s-16.6,4.2-16.6,11.2,5.5,10.2,22.6,16.1c26.4,9,37.5,22.5,37.6,42.8,0,26-20.3,45.1-60.1,45.1s-34.4-4.1-45.1-9.8l7.8-30.9Z"/>
        <path class="cls-1" d="M625.3,94.4c0,12-8.8,21.6-23.3,21.6s-22.6-9.6-22.5-21.6c0-12.4,9-21.7,22.9-21.7s22.7,9.3,22.9,21.7ZM580.7,272.2v-139.2h43.3v139.2h-43.3Z"/>
        <path class="cls-1" d="M706.9,93.4v39.7h31.1v31.9h-31.1v50.4c0,16.8,4.2,24.5,17.1,24.5s9.9-.6,12.9-1.3l.3,32.9c-5.6,2-15.9,3.7-28,3.7s-25.7-4.9-32.6-12.1c-8-8.2-12-21.5-12-41.2v-56.9h-18.5v-31.9h18.5v-29.9l42.3-9.8Z"/>
      </g>
      <g>
        <path class="cls-2" d="M901.9,95.4c0,12-8.8,21.6-23.3,21.6s-22.6-9.6-22.5-21.6c0-12.4,9-21.7,22.9-21.7s22.7,9.3,22.9,21.7ZM857.3,273.2v-139.2h43.3v139.2h-43.3Z"/>
        <path class="cls-2" d="M935.2,71.3h43.3v201.9h-43.3V71.3Z"/>
        <path class="cls-2" d="M1046.7,217.6c1.3,18,19,26.5,39.2,26.5s26.6-2,38.3-5.9l5.8,29.3c-14.4,5.9-31.8,8.8-50.4,8.8-47.1,0-74.2-27.5-74.2-70.8s22.1-74.5,70.2-74.5,62.1,35.1,62.1,69.5-.8,13.9-1.5,17.1h-89.5ZM1097.5,187.9c0-10.4-4.6-28.2-24.3-28.2s-25.7,16.7-26.9,28.2h51.1Z"/>
      </g>
      <path class="cls-2" d="M760.3,273.2v-107.3h-18.4v-31.9h18.4v-5.3c0-16.7,5.1-35.2,17.5-46.7,11-10.3,25.8-13.9,38.5-13.9s16.9,1.3,22.9,3l-1.7,33.2c-3.8-1.1-8.2-2-14-2-14.2,0-20.2,11.2-20.2,24.6v7.1h27.8v31.9h-27.5v107.3h-43.3Z"/>
    </g>
  </g>
</svg>